<svg xmlns="http://www.w3.org/2000/svg" version="1.1" xmlns:xlink="http://www.w3.org/1999/xlink" xmlns:svgjs="http://svgjs.dev/svgjs" width="2000" height="2250" viewBox="0 0 2000 2250"><g transform="matrix(1,0,0,1,0.00014687500004129106,0)"><svg viewBox="0 0 320 360" data-background-color="#ebe6c8" preserveAspectRatio="xMidYMid meet" height="2250" width="2000" xmlns="http://www.w3.org/2000/svg" xmlns:xlink="http://www.w3.org/1999/xlink"><g id="tight-bounds" transform="matrix(1,0,0,1,0.000023499999997511622,0)"><svg viewBox="0 0 320 360" height="360" width="320"><g><svg></svg></g><g><svg viewBox="0 0 320 360" height="360" width="320"><g><path transform="translate(-74.99272,-51.79039) scale(4.65793,4.65793)" d="M20.6 59.9l0.8 1-0.4-1.3c-0.1-0.6-0.8 0.1-0.4 0.3M21.5 59.3c0.3 0.5 0.6 1 0.6 1.5 0 0.7 0.6 1 1.1 1.2-0.7-0.8-1.1-3-1.7-2.7M59.9 16.9c1.7 0 3.3-0.2 5.1 0.2 4.4 1.1 8.1 3.3 10.6 6.4l7 11.2c0.3 2.8 0.9 5.9 0.8 9.3 0.7 0 0.6-1 1.4-1.2-0.8 2-1.2 4.5-1.4 7.4-0.5-1.6 0-4 0.1-5.3-0.7 1.1-1.1 0.3-1.1-0.2 0.1-0.8-0.3-0.7-0.6-1-1.1-1-1.8-2.1-2.6-3.8 0.5-1.3 0.6-3.2-1-4.2-0.5-0.3-1.1-0.8-1.4-1.6-0.4-1.1-1.1-2.4-0.9-4.1 0.1-0.5-1.5 1.1-2.4 0.4-3.9-2.7-7.8-5.8-12.5-8.4-2.5 0-4.3-0.9-5.2-2-0.8-1-0.2-2.3 1-2.4 0.7 0 1.5-0.2 2.1 0.2 0.1-0.4 0.5-0.9 1-0.9M50 14.6l0.2 0.1c1 0.2 1.5 1.6 2.6 1.1 0 0.7 0.1 1.4-0.1 1.9-0.3 0.8-1.2 0.8-1.9 0.8-6.7-0.4-10.6 2.4-14.7 4.8-1.1 0.7-2.3 1.2-3.2 2.1-4.3 4-9 7.7-10.1 15.1l-0.9 8.2c-0.1 0.9-1.1 1.8-0.9 2.9l0.7 4.9c-0.7-0.7-1.1 0.2-0.9 0.6 0.1 0.3 0.5 1.3 1.1 0.4 0.8 1.5 1.6 4.4 2.7 5.7 3.4 4 7.8 7.6 11.4 11.2 0.9-0.2 1.6-0.2 1.8-0.8 0.3 0.6-0.3 1.2-0.8 1.3 1.6 1 3.4 1.9 5.8 2.1 3.1 0.2 6 0.7 8.7 1.4 1.4-0.4 2.8-0.6 4.3-0.7 0.5 0 0.8-0.8 1.4-1l0.1-1c0.6 0.9 0.5-0.3 0.1-0.9 0.7 0.6 0.9 1.1 1.2 1.5 0-0.3 0.8-1.4 0.8-0.1l0.2-1.3c0.3-0.2 0.4 1.1 0.7 0.2 0.3-0.9 0.9-0.2 1.5-0.5-0.2 0.4-0.1 1.2 0.6 0.7l0.8-0.7c0.5 1.2 1.3 0.7 1.7 0.5 4.4-2.8 8.8-6.1 13-9.4l-0.1 1.3 0.5-1.6c0.5 0.5 0.9 0.1 1.1-0.2 0.6-1 1.4-2 2.7-2.9-1.6 4.3-3.5 7.7-5.9 10.5l-1 1.2c0 0.7-0.2 1.6-1 1.7-0.4 0.1-1.2-0.2-1.8 0.4-0.3 0.4 0.7 1.2-0.1 0.6-0.7-0.5-1.4 0-2.2 0.2-0.6 0.2 0.4 0.8 0.6 1.2 0.2 0.4 0.4 0.8 0.3 1.3l-1.1-1.2c-1.3 0.7-2.1 2-3.2 3-0.5 0.4-0.3 1.1-0.3 1.7-0.7 0-1.5-0.2-1.9 0.2-0.3 0.4-0.2 1-0.2 1.6-1-0.1-1.1-1.6-2-1.3-0.9 0.2-1.9 0.3-2.7 0.8 0.6 1.2-1 0.5-0.8 0.7-1.5-0.9-2.8-1.6-4.4-1-3.4-1.1-7.6-0.6-10.7-0.2 0-0.5 0.1-1-0.1-1.1-0.2 0.5-0.8 0.3-0.7 0.3-1.9-1.3-3.8-2.1-5.8-3.2-1.8 0.2-3.5-0.7-4-1.2-1.4-1.3-3-0.6-4.3-0.9-2.8-0.7-3.8-3.6-4.1-5.6-0.2-1-1-1.4-1.3-1.3-1.3-4.2-3.3-8-4.9-11.9-0.4-1-0.3-2-0.3-3.1 0.5 0.2 1 0.1 0.9-0.6-0.5-3.3-1.7-5.8-3-8.2 0.7-3.4 0.8-7.4 2.4-10.4 1.4-2.7 4-4.1 5.8-6.4 0.6-0.8 0.6-1.9 1.2-2.6 2-2 4-4.1 6.2-5.9 1-0.8 2.2 0 3.7-0.3 0.5-1.8 2.5-3.4 4.4-2.9 0.8 0.2 2.4-1.9 2.9-2.1 0.8-0.3 0.4 0.8 0.4 1.5 1.9-1.5 4.5-2.3 6.9-3.2" fill="#f96420" fill-rule="nonzero" stroke="none" stroke-width="1" stroke-linecap="butt" stroke-linejoin="miter" stroke-miterlimit="10" stroke-dasharray="" stroke-dashoffset="0" font-family="none" font-weight="none" font-size="none" text-anchor="none" style="mix-blend-mode: normal" data-fill-palette-color="tertiary"></path></g><g transform="matrix(1,0,0,1,126.08113222004471,90)"><svg viewBox="0 0 67.83773555991058 180" height="180" width="67.83773555991058"><g><svg viewBox="0 0 67.83773555991058 180" height="180" width="67.83773555991058"><g><svg viewBox="0 0 109.09090909090908 289.460776871331" height="180" width="67.83773555991058"><g transform="matrix(1,0,0,1,0,109.460776871331)"><svg viewBox="0 0 109.09090909090908 180" height="180" width="109.09090909090908"><g id="textblocktransform"><svg viewBox="0 0 109.09090909090908 180" height="180" width="109.09090909090908" id="textblock"><g><svg viewBox="0 0 109.09090909090908 180" height="180" width="109.09090909090908"><g transform="matrix(1,0,0,1,0,0)"><svg width="109.09090909090908" viewBox="2.4 -32.5 20 33" height="180" data-palette-color="#f96420"><path d="M12.75-32.5L12.75-32.5Q14.3-32.5 15.33-32.33 16.35-32.15 17.43-31.85 18.5-31.55 20.1-31.15L20.1-31.15Q20.4-29.25 20.58-27.23 20.75-25.2 20.8-24.2L20.8-24.2Q20.85-23.95 20.45-23.83 20.05-23.7 19.8-23.7L19.8-23.7Q19.45-23.7 19.25-23.9L19.25-23.9Q19.15-24.8 18.65-26 18.15-27.2 17.28-28.3 16.4-29.4 15.18-30.13 13.95-30.85 12.4-30.85L12.4-30.85Q10.4-30.85 9.25-30 8.1-29.15 7.6-27.9 7.1-26.65 7.1-25.45L7.1-25.45Q7.1-23.5 8.13-22.2 9.15-20.9 10.73-19.9 12.3-18.9 13.9-17.85L13.9-17.85Q15.1-17.1 16.55-16.2 18-15.3 19.35-14.2 20.7-13.1 21.55-11.68 22.4-10.25 22.4-8.45L22.4-8.45Q22.4-5.8 20.93-3.78 19.45-1.75 17.13-0.63 14.8 0.5 12.2 0.5L12.2 0.5Q9.75 0.5 7.48-0.05 5.2-0.6 3.4-0.95L3.4-0.95Q3.1-2.4 2.88-4.05 2.65-5.7 2.53-6.95 2.4-8.2 2.4-8.5L2.4-8.5Q2.65-8.75 2.98-8.93 3.3-9.1 3.65-9.1L3.65-9.1Q4.1-9.1 4.2-8.65L4.2-8.65Q4.35-7.95 4.83-6.73 5.3-5.5 6.23-4.2 7.15-2.9 8.63-2.02 10.1-1.15 12.3-1.15L12.3-1.15Q14.65-1.15 16.4-2.73 18.15-4.3 18.15-7.15L18.15-7.15Q18.15-9.2 17.23-10.35 16.3-11.5 14.83-12.35 13.35-13.2 11.65-14.15L11.65-14.15Q9.8-15.25 7.83-16.57 5.85-17.9 4.5-19.7 3.15-21.5 3.15-23.95L3.15-23.95Q3.15-26.55 4.53-28.48 5.9-30.4 8.1-31.45 10.3-32.5 12.75-32.5Z" opacity="1" transform="matrix(1,0,0,1,0,0)" fill="#f96420" class="wordmark-text-0" data-fill-palette-color="primary" id="text-0"></path></svg></g></svg></g></svg></g></svg></g><g transform="matrix(1,0,0,1,20.836363636363636,0)"><svg viewBox="0 0 67.41818181818181 66.96709687133101" height="66.96709687133101" width="67.41818181818181"><g><svg xmlns="http://www.w3.org/2000/svg" xmlns:xlink="http://www.w3.org/1999/xlink" version="1.1" x="0" y="0" viewBox="5.0011706729442444 5.307177791938927 89.99899197020315 89.3968222080611" style="enable-background:new 0 0 100 100;" xml:space="preserve" height="66.96709687133101" width="67.41818181818181" class="icon-icon-0" data-fill-palette-color="accent" id="icon-0"><path d="M92.729 58.95c0.399 0.076 0.812-0.013 1.144-0.248 0.332-0.234 0.555-0.593 0.617-0.995l0.327-2.095c0.08-0.534 0.137-1.065 0.174-1.613 0.027-0.532-0.011-1.04-0.045-1.487l-0.012-0.158c-0.09-1.017-0.262-2.008-0.521-2.984-0.647-2.214-1.807-3.86-2.704-4.894-1.825-1.951-4.203-3.068-6.734-3.172-0.707-2.852-1.762-5.601-3.148-8.204l7.104-3.979c0.354-0.198 0.613-0.532 0.717-0.925s0.044-0.811-0.166-1.159l-1.095-1.816c-0.282-0.46-0.579-0.903-0.93-1.381-0.357-0.444-0.74-0.845-1.074-1.185-0.721-0.726-1.488-1.379-2.35-1.988-1.678-1.056-3.462-1.742-5.209-1.99-2.908-0.319-5.539 0.463-7.573 2.229-2.319-1.699-4.81-3.105-7.434-4.196l3.031-7.977c0.143-0.375 0.128-0.793-0.039-1.158s-0.475-0.648-0.853-0.785l-1.981-0.718c-1.101-0.405-2.209-0.544-3.263-0.675-1.038-0.09-2.236-0.145-3.057-0.003-0.972 0.131-1.906 0.343-2.762 0.626-0.97 0.311-1.8 0.709-2.503 1.197-2.509 1.643-4.042 4.026-4.415 6.813-2.827 0.156-5.609 0.641-8.303 1.446l-2.852-8.19c-0.132-0.38-0.412-0.691-0.776-0.863s-0.783-0.19-1.159-0.051L32.937 7.09c-1.056 0.359-1.945 0.93-2.729 1.434L30.043 8.63c-0.019 0.012-0.091 0.063-0.109 0.075-0.803 0.567-1.634 1.153-2.299 1.93-0.66 0.724-1.239 1.486-1.721 2.266-0.239 0.387-0.459 0.786-0.68 1.245-0.17 0.393-0.32 0.81-0.461 1.276-0.515 1.718-0.607 3.396-0.27 5 0.228 1.039 0.635 2.03 1.214 2.961-2.105 1.921-3.969 4.074-5.563 6.427l-7.254-4.332c-0.706-0.421-1.618-0.197-2.048 0.503-0.674 1.099-1.028 1.677-1.189 2.074-1.071 2.243-1.593 4.124-1.639 5.866-0.057 0.976-0.026 1.93 0.099 2.885 0.14 0.849 0.396 1.733 0.757 2.611 1.005 2.534 2.958 4.441 5.466 5.389-0.253 1.736-0.381 3.478-0.381 5.194 0 1.153 0.06 2.333 0.177 3.521l-7.879 1.268c-0.816 0.131-1.373 0.898-1.243 1.715l0.289 1.798c0.047 0.255 0.097 0.43 0.097 0.43 0.664 2.549 1.459 4.309 2.548 5.666 0.584 0.782 1.223 1.492 1.911 2.122 0.611 0.547 1.359 1.051 2.278 1.537 2.237 1.201 4.776 1.47 7.146 0.785 1.578 2.57 3.462 4.921 5.622 7.017l-4.895 5.667c-0.537 0.622-0.474 1.56 0.142 2.104l0.789 0.697c0.027 0.024 0.055 0.047 0.084 0.069l0.842 0.642c0.848 0.642 1.742 1.212 2.712 1.722 0.834 0.398 1.772 0.729 2.835 1.003 1.74 0.49 3.72 0.529 5.598 0.138 1.675-0.324 3.245-1.118 4.536-2.295 0.441-0.4 0.847-0.854 1.215-1.356 2.921 0.956 5.963 1.53 9.074 1.712l-0.099 7.2c-0.011 0.786 0.59 1.446 1.372 1.515 0 0 0.315 0.027 0.723 0.027 0.177 0 0.37-0.005 0.521-0.017l1.054-0.045c1.059-0.048 2.109-0.182 3.206-0.418 0.935-0.256 1.887-0.616 2.795-1.053 2.096-0.944 3.547-2.431 4.405-3.524 0.603-0.785 1.024-1.491 1.329-2.23 0.32-0.788 0.538-1.6 0.647-2.411 0.077-0.564 0.097-1.146 0.062-1.739 2.867-1.194 5.556-2.748 8.021-4.635l4.59 5.621c0.488 0.598 1.365 0.718 2.008 0.29 0 0 0.175-0.117 0.41-0.326l1.309-1.174c3.104-2.703 4.941-6.734 4.794-10.54-0.128-2.489-1.092-4.718-2.746-6.397 1.358-2.714 2.362-5.589 2.995-8.576L92.729 58.95zM83.189 54.546c-0.331 0.23-0.555 0.584-0.622 0.982-0.606 3.595-1.787 7.028-3.51 10.204-0.35 0.645-0.182 1.448 0.396 1.899 1.555 1.211 2.434 2.949 2.539 5.007 0.087 2.274-0.856 5.607-3.786 8.159l-0.396 0.357-4.547-5.568c-0.253-0.31-0.62-0.506-1.019-0.544-0.4-0.033-0.796 0.085-1.104 0.341-2.825 2.356-6.002 4.212-9.442 5.515-0.677 0.257-1.074 0.961-0.944 1.673 0.133 0.723 0.155 1.388 0.067 2.035-0.076 0.562-0.228 1.127-0.45 1.674-0.199 0.481-0.495 0.971-0.923 1.529-0.64 0.816-1.727 1.935-3.3 2.644-0.781 0.375-1.563 0.671-2.239 0.859-0.852 0.181-1.738 0.293-2.63 0.334l-0.516 0.022 0.098-7.127c0.011-0.826-0.647-1.505-1.473-1.521-3.707-0.067-7.318-0.735-10.732-1.983-0.169-0.062-0.343-0.091-0.515-0.091-0.532 0-1.042 0.284-1.313 0.773-0.37 0.667-0.792 1.212-1.295 1.668-0.886 0.807-1.954 1.35-3.107 1.573-1.455 0.302-2.893 0.281-4.227-0.093-0.906-0.234-1.667-0.501-2.272-0.788-0.772-0.407-1.528-0.889-2.242-1.43l-0.409-0.312 4.847-5.611c0.535-0.619 0.475-1.553-0.135-2.099-2.688-2.403-4.955-5.216-6.738-8.36-0.38-0.67-1.208-0.943-1.913-0.631-1.875 0.834-3.941 0.764-5.787-0.228-0.709-0.374-1.261-0.742-1.674-1.112-0.538-0.493-1.049-1.063-1.553-1.735-0.844-1.052-1.466-2.467-2.025-4.618-0.005-0.019-0.023-0.09-0.036-0.156l-0.045-0.275 7.821-1.258c0.805-0.129 1.359-0.878 1.248-1.687-0.213-1.544-0.322-3.082-0.322-4.568 0-1.973 0.185-3.985 0.55-5.98 0.145-0.792-0.362-1.558-1.148-1.734-2.177-0.487-3.889-1.935-4.704-3.991-0.281-0.685-0.476-1.35-0.572-1.925-0.093-0.719-0.117-1.484-0.069-2.321 0.037-1.38 0.481-2.908 1.4-4.807 0.019-0.038 0.035-0.077 0.05-0.116 0.038-0.07 0.099-0.176 0.174-0.305l7.211 4.307c0.703 0.421 1.613 0.198 2.044-0.498 1.836-2.964 4.123-5.613 6.796-7.871 0.629-0.532 0.712-1.471 0.186-2.105-0.738-0.888-1.227-1.856-1.448-2.862-0.23-1.095-0.159-2.275 0.21-3.506 0.106-0.353 0.218-0.663 0.315-0.891 0.149-0.307 0.317-0.612 0.505-0.917 0.384-0.622 0.851-1.235 1.416-1.856 0.453-0.527 1.069-0.962 1.78-1.466l0.168-0.108c0.702-0.451 1.364-0.876 2.109-1.13l0.551-0.203 2.832 8.13c0.271 0.781 1.122 1.193 1.906 0.925 3.269-1.128 6.696-1.73 10.187-1.791 0.824-0.015 1.482-0.691 1.474-1.515-0.024-2.39 1.064-4.374 3.18-5.76 0.488-0.338 1.058-0.609 1.756-0.832 0.694-0.23 1.446-0.4 2.284-0.514 0.621-0.105 1.481-0.049 2.306 0.021 0.859 0.108 1.748 0.22 2.535 0.509l0.555 0.201-3.017 7.941c-0.142 0.375-0.129 0.791 0.038 1.156 0.167 0.364 0.472 0.647 0.849 0.785 3.259 1.195 6.314 2.909 9.082 5.095 0.627 0.496 1.534 0.412 2.061-0.192 1.31-1.505 3.01-2.268 5.052-2.268 0.304 0 0.614 0.018 0.882 0.046 1.284 0.183 2.663 0.72 3.917 1.506 0.653 0.464 1.289 1.006 1.883 1.604 0.29 0.294 0.595 0.614 0.826 0.899 0.262 0.36 0.515 0.736 0.749 1.118l0.29 0.48-7.061 3.955c-0.352 0.197-0.61 0.527-0.715 0.917-0.105 0.39-0.05 0.805 0.155 1.152 1.808 3.074 3.096 6.392 3.828 9.859 0.158 0.748 0.862 1.25 1.611 1.184 2.095-0.203 4.068 0.575 5.549 2.156 0.664 0.765 1.558 2.033 2.043 3.691 0.205 0.774 0.347 1.597 0.421 2.423l0.011 0.142c0.03 0.393 0.058 0.764 0.042 1.081-0.03 0.444-0.079 0.895-0.145 1.338l-0.086 0.554-7.44-1.411C83.93 54.228 83.52 54.315 83.189 54.546z" fill="#044b05" data-fill-palette-color="accent"></path><path d="M50 25.705c-13.396 0-24.295 10.898-24.295 24.295S36.604 74.295 50 74.295 74.295 63.396 74.295 50 63.396 25.705 50 25.705zM50 71.295c-11.742 0-21.295-9.553-21.295-21.295S38.258 28.705 50 28.705 71.295 38.258 71.295 50 61.742 71.295 50 71.295z" fill="#044b05" data-fill-palette-color="accent"></path></svg></g></svg></g><g></g></svg></g></svg></g></svg></g></svg></g><defs></defs></svg><rect width="320" height="360" fill="none" stroke="none" visibility="hidden"></rect></g></svg></g></svg>